<svg xmlns="http://www.w3.org/2000/svg" width="920" height="560" viewBox="0 0 920 560" font-family="Menlo, Consolas, 'DejaVu Sans Mono', monospace">
  <rect width="920" height="560" rx="14" fill="#0f1420"/>
  <circle cx="30" cy="28" r="7" fill="#ff5f57"/>
  <circle cx="52" cy="28" r="7" fill="#febc2e"/>
  <circle cx="74" cy="28" r="7" fill="#28c840"/>
  <text x="100" y="33" fill="#93a0b8" font-size="14">terminal — proseguard</text>
  <text x="28" y="76" fill="#51cf66" font-size="15">$ proseguard --stats draft.md</text>
  <text x="28" y="108" fill="#e6eaf2" font-size="15">draft.md</text>
  <text x="48" y="136" fill="#ffd166" font-size="14">3:9</text><text x="90" y="136" fill="#ff6b6b" font-size="14">error</text><text x="160" y="136" fill="#e6eaf2" font-size="14">Possible misspelling “definately”.</text><text x="520" y="136" fill="#93a0b8" font-size="14">PG100</text>
  <text x="48" y="164" fill="#ffd166" font-size="14">6:11</text><text x="90" y="164" fill="#ff6b6b" font-size="14">error</text><text x="160" y="164" fill="#e6eaf2" font-size="14">Modal verbs are followed by “have”.</text><text x="560" y="164" fill="#93a0b8" font-size="14">PG201</text>
  <text x="48" y="192" fill="#ffd166" font-size="14">7:26</text><text x="90" y="192" fill="#5cc8ff" font-size="14">hint </text><text x="160" y="192" fill="#e6eaf2" font-size="14">Possible passive voice “was written”.</text><text x="560" y="192" fill="#93a0b8" font-size="14">PG402</text>
  <text x="48" y="220" fill="#ffd166" font-size="14">8:7</text><text x="90" y="220" fill="#5cc8ff" font-size="14">hint </text><text x="160" y="220" fill="#e6eaf2" font-size="14">Wordy phrase “In order to” → “To”.</text><text x="560" y="220" fill="#93a0b8" font-size="14">PG403</text>
  <text x="48" y="248" fill="#ffd166" font-size="14">9:1</text><text x="90" y="248" fill="#ff6b6b" font-size="14">error</text><text x="160" y="248" fill="#e6eaf2" font-size="14">Double comparative “more easier”.</text><text x="560" y="248" fill="#93a0b8" font-size="14">PG202</text>
  <line x1="28" y1="272" x2="892" y2="272" stroke="#283149"/>
  <text x="28" y="304" fill="#93a0b8" font-size="14">stats  100 words / 5 sentences · FK grade 9.3 · Fog 13.2 · FRE 63.9</text>
  <text x="28" y="344" fill="#ff6b6b" font-size="15">✖ 4 error(s), 2 warning(s), 8 suggestion(s)</text>
  <text x="28" y="388" fill="#51cf66" font-size="15">$ proseguard --fix draft.md</text>
  <text x="28" y="416" fill="#93a0b8" font-size="14">Applied 6 safe fixes · code blocks, inline code and URLs left untouched</text>
  <text x="28" y="452" fill="#51cf66" font-size="15">$ proseguard draft.md</text>
  <text x="28" y="480" fill="#51cf66" font-size="15">✔ No errors or warnings. 8 style suggestions remain for manual review.</text>
  <rect x="28" y="504" width="864" height="34" rx="6" fill="#171d2c" stroke="#283149"/>
  <text x="42" y="526" fill="#93a0b8" font-size="13">zero third-party dependencies · offline by default · Markdown-aware · CI-friendly exit codes</text>
</svg>
